<svg width="21" height="21" viewBox="0 0 21 21" fill="none" xmlns="http://www.w3.org/2000/svg">
<path d="M10.5 0.083252C8.43982 0.083252 6.42587 0.694179 4.71286 1.83878C2.99984 2.98337 1.66471 4.61024 0.8763 6.51363C0.0878874 8.41703 -0.118397 10.5115 0.283532 12.5321C0.685462 14.5527 1.67755 16.4088 3.13435 17.8656C4.59115 19.3224 6.44722 20.3145 8.46786 20.7164C10.4885 21.1184 12.5829 20.9121 14.4863 20.1237C16.3897 19.3353 18.0166 18.0001 19.1612 16.2871C20.3058 14.5741 20.9167 12.5601 20.9167 10.4999C20.9167 9.13198 20.6473 7.77744 20.1238 6.51363C19.6003 5.24982 18.833 4.1015 17.8657 3.13422C16.8985 2.16695 15.7501 1.39966 14.4863 0.876173C13.2225 0.352687 11.868 0.083252 10.5 0.083252ZM10.5 18.8333C8.85187 18.8333 7.2407 18.3445 5.87029 17.4288C4.49988 16.5132 3.43178 15.2117 2.80105 13.6889C2.17032 12.1662 2.00529 10.4907 2.32684 8.87417C2.64838 7.25766 3.44205 5.7728 4.60749 4.60736C5.77293 3.44192 7.25779 2.64825 8.87429 2.32671C10.4908 2.00516 12.1664 2.17019 13.6891 2.80092C15.2118 3.43165 16.5133 4.49976 17.429 5.87017C18.3446 7.24058 18.8334 8.85174 18.8334 10.4999C18.8334 12.7101 17.9554 14.8297 16.3926 16.3925C14.8298 17.9553 12.7102 18.8333 10.5 18.8333ZM14.6667 9.45825H11.5417V6.33325C11.5417 6.05698 11.432 5.79203 11.2366 5.59668C11.0413 5.40133 10.7763 5.29158 10.5 5.29158C10.2238 5.29158 9.95883 5.40133 9.76348 5.59668C9.56813 5.79203 9.45838 6.05698 9.45838 6.33325V9.45825H6.33338C6.05711 9.45825 5.79216 9.568 5.59681 9.76335C5.40146 9.9587 5.29171 10.2237 5.29171 10.4999C5.29171 10.7762 5.40146 11.0411 5.59681 11.2365C5.79216 11.4318 6.05711 11.5416 6.33338 11.5416H9.45838V14.6666C9.45838 14.9429 9.56813 15.2078 9.76348 15.4032C9.95883 15.5985 10.2238 15.7083 10.5 15.7083C10.7763 15.7083 11.0413 15.5985 11.2366 15.4032C11.432 15.2078 11.5417 14.9429 11.5417 14.6666V11.5416H14.6667C14.943 11.5416 15.2079 11.4318 15.4033 11.2365C15.5986 11.0411 15.7084 10.7762 15.7084 10.4999C15.7084 10.2237 15.5986 9.9587 15.4033 9.76335C15.2079 9.568 14.943 9.45825 14.6667 9.45825Z" fill="#3E9BF8"/>
</svg>
