<svg width="19" height="19" viewBox="0 0 19 19" fill="none" xmlns="http://www.w3.org/2000/svg">
<path d="M15.9837 10.375C15.7912 10.375 15.59 10.3138 15.3975 10.27C15.0079 10.1829 14.6249 10.0689 14.2512 9.92875C13.8453 9.78108 13.3991 9.78874 12.9985 9.95028C12.5979 10.1118 12.2712 10.4158 12.0812 10.8038L11.8887 11.2063C11.0389 10.7243 10.2539 10.1363 9.55247 9.45625C8.87246 8.75483 8.28441 7.96978 7.80247 7.12L8.20497 6.93625C8.59291 6.7463 8.8969 6.41959 9.05844 6.01898C9.21997 5.61837 9.22764 5.17217 9.07997 4.76625C8.94101 4.38915 8.82701 4.00332 8.73872 3.61125C8.69497 3.41875 8.65997 3.2175 8.63372 3.025C8.52746 2.40867 8.20464 1.85052 7.72339 1.45108C7.24213 1.05164 6.63408 0.837158 6.00872 0.84625H3.37497C3.00506 0.845765 2.63922 0.923467 2.30145 1.07426C1.96367 1.22505 1.66157 1.44554 1.41497 1.72125C1.16325 2.00445 0.975818 2.33878 0.865558 2.70128C0.755297 3.06378 0.724819 3.44585 0.776217 3.82125C1.25186 7.46312 2.91578 10.8463 5.50997 13.4463C8.1099 16.0404 11.4931 17.7044 15.135 18.18C15.2486 18.1887 15.3626 18.1887 15.4762 18.18C16.1215 18.1809 16.7444 17.9442 17.2262 17.515C17.5019 17.2684 17.7224 16.9663 17.8732 16.6285C18.024 16.2907 18.1017 15.9249 18.1012 15.555V12.93C18.0965 12.3254 17.8832 11.741 17.4974 11.2755C17.1116 10.8099 16.5769 10.4919 15.9837 10.375ZM16.4125 15.625C16.4122 15.7471 16.3863 15.8678 16.3366 15.9793C16.2869 16.0908 16.2144 16.1907 16.1237 16.2725C16.0278 16.3599 15.9137 16.4248 15.7896 16.4627C15.6655 16.5005 15.5345 16.5103 15.4062 16.4913C12.141 16.0648 9.10644 14.5767 6.76997 12.2563C4.43151 9.91778 2.93049 6.8727 2.49997 3.59375C2.48096 3.46542 2.49072 3.33446 2.52856 3.21037C2.56639 3.08628 2.63135 2.97215 2.71872 2.87625C2.80151 2.78451 2.9028 2.71134 3.01591 2.66157C3.12902 2.6118 3.25139 2.58656 3.37497 2.5875H5.99997C6.20223 2.58256 6.39996 2.64786 6.5595 2.7723C6.71903 2.89674 6.83052 3.07262 6.87497 3.27C6.87497 3.50625 6.95372 3.75125 7.00622 3.9875C7.10735 4.44588 7.24187 4.89625 7.40872 5.335L6.18372 5.9125C5.97316 6.00916 5.80953 6.18537 5.72872 6.4025C5.6412 6.61553 5.6412 6.85447 5.72872 7.0675C6.98802 9.76491 9.15631 11.9332 11.8537 13.1925C12.0667 13.28 12.3057 13.28 12.5187 13.1925C12.7358 13.1117 12.9121 12.9481 13.0087 12.7375L13.56 11.5125C14.0114 11.6771 14.4732 11.8116 14.9425 11.915C15.17 11.9675 15.415 12.0113 15.6512 12.0463C15.8486 12.0907 16.0245 12.2022 16.1489 12.3617C16.2734 12.5213 16.3387 12.719 16.3337 12.9213L16.4125 15.625ZM11.25 0.75C11.0487 0.75 10.8387 0.75 10.6375 0.75C10.4054 0.769725 10.1907 0.88083 10.0405 1.05887C9.89039 1.23692 9.81712 1.46731 9.83684 1.69938C9.85657 1.93144 9.96767 2.14616 10.1457 2.29631C10.3238 2.44646 10.5542 2.51973 10.7862 2.5H11.25C12.6424 2.5 13.9777 3.05312 14.9623 4.03769C15.9468 5.02226 16.5 6.35761 16.5 7.75C16.5 7.9075 16.5 8.05625 16.5 8.21375C16.4806 8.44458 16.5535 8.67369 16.7028 8.85084C16.852 9.02799 17.0654 9.13872 17.2962 9.15875H17.3662C17.5853 9.15964 17.7967 9.07834 17.9587 8.93091C18.1207 8.78349 18.2215 8.58066 18.2412 8.3625C18.2412 8.16125 18.2412 7.95125 18.2412 7.75C18.2412 5.895 17.5049 4.11585 16.1941 2.80334C14.8832 1.49084 13.105 0.752319 11.25 0.75ZM13 7.75C13 7.98206 13.0922 8.20462 13.2562 8.36872C13.4203 8.53281 13.6429 8.625 13.875 8.625C14.107 8.625 14.3296 8.53281 14.4937 8.36872C14.6578 8.20462 14.75 7.98206 14.75 7.75C14.75 6.82174 14.3812 5.9315 13.7248 5.27513C13.0685 4.61875 12.1782 4.25 11.25 4.25C11.0179 4.25 10.7953 4.34219 10.6312 4.50628C10.4672 4.67038 10.375 4.89294 10.375 5.125C10.375 5.35706 10.4672 5.57962 10.6312 5.74372C10.7953 5.90781 11.0179 6 11.25 6C11.7141 6 12.1592 6.18438 12.4874 6.51256C12.8156 6.84075 13 7.28587 13 7.75Z" fill="#22477B"/>
</svg>
