<svg width="18" height="18" viewBox="0 0 18 18" fill="none" xmlns="http://www.w3.org/2000/svg">
<path d="M14.8333 0.666748H3.16667C2.50363 0.666748 1.86774 0.93014 1.3989 1.39898C0.93006 1.86782 0.666668 2.50371 0.666668 3.16675V11.5001C0.666668 12.1631 0.93006 12.799 1.3989 13.2678C1.86774 13.7367 2.50363 14.0001 3.16667 14.0001H12.825L15.9083 17.0917C15.9862 17.169 16.0785 17.2301 16.1801 17.2716C16.2816 17.313 16.3903 17.334 16.5 17.3334C16.6093 17.3362 16.7178 17.3134 16.8167 17.2667C16.9689 17.2042 17.0991 17.0981 17.1911 16.9616C17.283 16.8252 17.3325 16.6646 17.3333 16.5001V3.16675C17.3333 2.50371 17.0699 1.86782 16.6011 1.39898C16.1323 0.93014 15.4964 0.666748 14.8333 0.666748ZM15.6667 14.4917L13.7583 12.5751C13.6805 12.4978 13.5881 12.4367 13.4866 12.3953C13.3851 12.3538 13.2763 12.3328 13.1667 12.3334H3.16667C2.94565 12.3334 2.73369 12.2456 2.57741 12.0893C2.42113 11.9331 2.33333 11.7211 2.33333 11.5001V3.16675C2.33333 2.94573 2.42113 2.73377 2.57741 2.57749C2.73369 2.42121 2.94565 2.33341 3.16667 2.33341H14.8333C15.0543 2.33341 15.2663 2.42121 15.4226 2.57749C15.5789 2.73377 15.6667 2.94573 15.6667 3.16675V14.4917Z" fill="black"/>
</svg>
