<svg width="18" height="18" viewBox="0 0 18 18" fill="none" xmlns="http://www.w3.org/2000/svg">
<path d="M13.1667 1.74984C9.91669 -0.0834962 5.91669 0.499837 3.25002 2.99984V1.49984C3.25002 0.999837 2.91669 0.666504 2.41669 0.666504C1.91669 0.666504 1.58335 0.999837 1.58335 1.49984V5.24984C1.58335 5.74984 1.91669 6.08317 2.41669 6.08317H6.16669C6.66669 6.08317 7.00002 5.74984 7.00002 5.24984C7.00002 4.74984 6.66669 4.4165 6.16669 4.4165H4.16669C5.41669 3.08317 7.16669 2.33317 9.00002 2.33317C12.6667 2.33317 15.6667 5.33317 15.6667 8.99984C15.6667 12.6665 12.6667 15.6665 9.00002 15.6665C5.33335 15.6665 2.33335 12.6665 2.33335 8.99984C2.33335 8.49984 2.00002 8.1665 1.50002 8.1665C1.00002 8.1665 0.666687 8.49984 0.666687 8.99984C0.666687 13.5832 4.41669 17.3332 9.00002 17.3332C12 17.3332 14.75 15.7498 16.25 13.1665C18.5 9.1665 17.1667 4.08317 13.1667 1.74984ZM9.00002 5.6665C8.50002 5.6665 8.16669 5.99984 8.16669 6.49984V8.99984C8.16669 9.49984 8.50002 9.83317 9.00002 9.83317H10.6667C11.1667 9.83317 11.5 9.49984 11.5 8.99984C11.5 8.49984 11.1667 8.1665 10.6667 8.1665H9.83335V6.49984C9.83335 5.99984 9.50002 5.6665 9.00002 5.6665Z" fill="black"/>
</svg>
