<svg width="78" height="74" viewBox="0 0 78 74" fill="none" xmlns="http://www.w3.org/2000/svg">
<path d="M70.1667 44.3333C69.1942 44.3333 68.2616 44.7196 67.5739 45.4073C66.8863 46.0949 66.5 47.0275 66.5 48V62.6667C66.5 63.6391 66.1137 64.5718 65.4261 65.2594C64.7384 65.947 63.8058 66.3333 62.8333 66.3333H11.5C10.5275 66.3333 9.59491 65.947 8.90728 65.2594C8.21964 64.5718 7.83333 63.6391 7.83333 62.6667V27.5033L29.3933 49.1C31.4558 51.1599 34.2517 52.317 37.1667 52.317C40.0817 52.317 42.8775 51.1599 44.94 49.1L50.9533 43.0867C51.6438 42.3962 52.0317 41.4598 52.0317 40.4833C52.0317 39.5069 51.6438 38.5704 50.9533 37.88C50.2629 37.1895 49.3264 36.8017 48.35 36.8017C47.3736 36.8017 46.4371 37.1895 45.7467 37.88L39.7333 43.8933C39.0479 44.5652 38.1264 44.9415 37.1667 44.9415C36.2069 44.9415 35.2854 44.5652 34.6 43.8933L13.0033 22.3333H37.1667C38.1391 22.3333 39.0718 21.947 39.7594 21.2594C40.447 20.5718 40.8333 19.6391 40.8333 18.6667C40.8333 17.6942 40.447 16.7616 39.7594 16.0739C39.0718 15.3863 38.1391 15 37.1667 15H11.5C8.58262 15 5.78473 16.1589 3.72183 18.2218C1.65893 20.2847 0.5 23.0826 0.5 26V62.6667C0.5 65.584 1.65893 68.3819 3.72183 70.4448C5.78473 72.5077 8.58262 73.6667 11.5 73.6667H62.8333C65.7507 73.6667 68.5486 72.5077 70.6115 70.4448C72.6744 68.3819 73.8333 65.584 73.8333 62.6667V48C73.8333 47.0275 73.447 46.0949 72.7594 45.4073C72.0718 44.7196 71.1391 44.3333 70.1667 44.3333ZM76.4367 19.73C76.0958 19.3863 75.6903 19.1135 75.2434 18.9274C74.7966 18.7412 74.3174 18.6454 73.8333 18.6454C73.3493 18.6454 72.87 18.7412 72.4232 18.9274C71.9764 19.1135 71.5709 19.3863 71.23 19.73L66.5 24.4967V3.99999C66.5 3.02753 66.1137 2.0949 65.4261 1.40727C64.7384 0.719636 63.8058 0.333328 62.8333 0.333328C61.8609 0.333328 60.9282 0.719636 60.2406 1.40727C59.553 2.0949 59.1667 3.02753 59.1667 3.99999V24.4967L54.4367 19.73C54.0948 19.3881 53.6889 19.1169 53.2422 18.9319C52.7956 18.7469 52.3168 18.6517 51.8333 18.6517C50.8569 18.6517 49.9204 19.0395 49.23 19.73C48.8881 20.0719 48.6169 20.4777 48.4319 20.9244C48.2469 21.3711 48.1517 21.8498 48.1517 22.3333C48.1517 23.3098 48.5396 24.2462 49.23 24.9367L60.23 35.9367C60.5787 36.2705 60.9899 36.5321 61.44 36.7067C61.8789 36.9006 62.3535 37.0008 62.8333 37.0008C63.3132 37.0008 63.7878 36.9006 64.2267 36.7067C64.6768 36.5321 65.088 36.2705 65.4367 35.9367L76.4367 24.9367C76.7803 24.5958 77.0531 24.1903 77.2393 23.7434C77.4254 23.2966 77.5213 22.8174 77.5213 22.3333C77.5213 21.8493 77.4254 21.37 77.2393 20.9232C77.0531 20.4764 76.7803 20.0709 76.4367 19.73Z" fill="#22477B"/>
</svg>
