<svg width="16" height="18" viewBox="0 0 16 18" fill="none" xmlns="http://www.w3.org/2000/svg">
<path d="M11.3333 10.6665H4.66667C4.44565 10.6665 4.23369 10.7543 4.07741 10.9106C3.92113 11.0669 3.83333 11.2788 3.83333 11.4998C3.83333 11.7209 3.92113 11.9328 4.07741 12.0891C4.23369 12.2454 4.44565 12.3332 4.66667 12.3332H11.3333C11.5543 12.3332 11.7663 12.2454 11.9226 12.0891C12.0789 11.9328 12.1667 11.7209 12.1667 11.4998C12.1667 11.2788 12.0789 11.0669 11.9226 10.9106C11.7663 10.7543 11.5543 10.6665 11.3333 10.6665ZM11.3333 7.33317H6.33333C6.11232 7.33317 5.90036 7.42097 5.74408 7.57725C5.5878 7.73353 5.5 7.94549 5.5 8.1665C5.5 8.38752 5.5878 8.59948 5.74408 8.75576C5.90036 8.91204 6.11232 8.99984 6.33333 8.99984H11.3333C11.5543 8.99984 11.7663 8.91204 11.9226 8.75576C12.0789 8.59948 12.1667 8.38752 12.1667 8.1665C12.1667 7.94549 12.0789 7.73353 11.9226 7.57725C11.7663 7.42097 11.5543 7.33317 11.3333 7.33317ZM14.6667 2.33317H12.1667V1.49984C12.1667 1.27882 12.0789 1.06686 11.9226 0.910582C11.7663 0.754301 11.5543 0.666504 11.3333 0.666504C11.1123 0.666504 10.9004 0.754301 10.7441 0.910582C10.5878 1.06686 10.5 1.27882 10.5 1.49984V2.33317H8.83333V1.49984C8.83333 1.27882 8.74554 1.06686 8.58926 0.910582C8.43297 0.754301 8.22101 0.666504 8 0.666504C7.77899 0.666504 7.56702 0.754301 7.41074 0.910582C7.25446 1.06686 7.16667 1.27882 7.16667 1.49984V2.33317H5.5V1.49984C5.5 1.27882 5.4122 1.06686 5.25592 0.910582C5.09964 0.754301 4.88768 0.666504 4.66667 0.666504C4.44565 0.666504 4.23369 0.754301 4.07741 0.910582C3.92113 1.06686 3.83333 1.27882 3.83333 1.49984V2.33317H1.33333C1.11232 2.33317 0.900358 2.42097 0.744078 2.57725C0.587797 2.73353 0.5 2.94549 0.5 3.1665V14.8332C0.5 15.4962 0.763392 16.1321 1.23223 16.6009C1.70107 17.0698 2.33696 17.3332 3 17.3332H13C13.663 17.3332 14.2989 17.0698 14.7678 16.6009C15.2366 16.1321 15.5 15.4962 15.5 14.8332V3.1665C15.5 2.94549 15.4122 2.73353 15.2559 2.57725C15.0996 2.42097 14.8877 2.33317 14.6667 2.33317ZM13.8333 14.8332C13.8333 15.0542 13.7455 15.2661 13.5893 15.4224C13.433 15.5787 13.221 15.6665 13 15.6665H3C2.77899 15.6665 2.56702 15.5787 2.41074 15.4224C2.25446 15.2661 2.16667 15.0542 2.16667 14.8332V3.99984H3.83333V4.83317C3.83333 5.05418 3.92113 5.26615 4.07741 5.42243C4.23369 5.57871 4.44565 5.6665 4.66667 5.6665C4.88768 5.6665 5.09964 5.57871 5.25592 5.42243C5.4122 5.26615 5.5 5.05418 5.5 4.83317V3.99984H7.16667V4.83317C7.16667 5.05418 7.25446 5.26615 7.41074 5.42243C7.56702 5.57871 7.77899 5.6665 8 5.6665C8.22101 5.6665 8.43297 5.57871 8.58926 5.42243C8.74554 5.26615 8.83333 5.05418 8.83333 4.83317V3.99984H10.5V4.83317C10.5 5.05418 10.5878 5.26615 10.7441 5.42243C10.9004 5.57871 11.1123 5.6665 11.3333 5.6665C11.5543 5.6665 11.7663 5.57871 11.9226 5.42243C12.0789 5.26615 12.1667 5.05418 12.1667 4.83317V3.99984H13.8333V14.8332Z" fill="black"/>
</svg>
