<svg width="20" height="20" viewBox="0 0 20 20" fill="none" xmlns="http://www.w3.org/2000/svg">
<path d="M18.0917 3.93334L16.0667 1.90834C15.9106 1.75313 15.6994 1.66602 15.4792 1.66602C15.259 1.66602 15.0478 1.75313 14.8917 1.90834L10.2417 6.55834C10.1645 6.63621 10.1034 6.72856 10.0619 6.83009C10.0204 6.93162 9.9994 7.04034 10 7.15001V9.16668C10 9.38769 10.0878 9.59965 10.2441 9.75593C10.4004 9.91221 10.6124 10 10.8334 10H12.85C12.9597 10.0006 13.0684 9.97962 13.17 9.93815C13.2715 9.89668 13.3638 9.83558 13.4417 9.75834L18.0917 5.10834C18.2469 4.95221 18.334 4.741 18.334 4.52084C18.334 4.30069 18.2469 4.08948 18.0917 3.93334ZM12.5 8.33334H11.6667V7.50001L15.4834 3.68334L16.3167 4.51668L12.5 8.33334ZM15.8334 10C15.6124 10 15.4004 10.0878 15.2441 10.2441C15.0878 10.4004 15 10.6123 15 10.8333C15 12.3804 14.3855 13.8642 13.2915 14.9581C12.1975 16.0521 10.7138 16.6667 9.1667 16.6667H4.50837L5.0417 16.1417C5.11981 16.0642 5.1818 15.972 5.22411 15.8705C5.26642 15.7689 5.2882 15.66 5.2882 15.55C5.2882 15.44 5.26642 15.3311 5.22411 15.2295C5.1818 15.128 5.11981 15.0358 5.0417 14.9583C4.22581 14.1425 3.67017 13.1031 3.44506 11.9715C3.21994 10.8399 3.33546 9.66692 3.77701 8.60097C4.21855 7.53501 4.96629 6.62394 5.92565 5.98297C6.88502 5.342 8.01292 4.99993 9.1667 5.00001C9.38771 5.00001 9.59968 4.91221 9.75596 4.75593C9.91224 4.59965 10 4.38769 10 4.16668C10 3.94566 9.91224 3.7337 9.75596 3.57742C9.59968 3.42114 9.38771 3.33334 9.1667 3.33334C7.75626 3.33798 6.3757 3.74024 5.18352 4.49396C3.99134 5.24767 3.03586 6.32229 2.42676 7.59444C1.81766 8.86659 1.57963 10.2847 1.73999 11.686C1.90035 13.0873 2.45261 14.415 3.33337 15.5167L1.90837 16.9083C1.79274 17.0255 1.71441 17.1743 1.68326 17.336C1.65212 17.4977 1.66955 17.6649 1.73337 17.8167C1.79588 17.9689 1.90205 18.0991 2.03848 18.1911C2.17492 18.283 2.33551 18.3325 2.50003 18.3333H9.1667C10.1516 18.3333 11.1269 18.1394 12.0368 17.7624C12.9468 17.3855 13.7736 16.8331 14.47 16.1366C15.1664 15.4402 15.7189 14.6134 16.0958 13.7035C16.4727 12.7935 16.6667 11.8183 16.6667 10.8333C16.6667 10.6123 16.5789 10.4004 16.4226 10.2441C16.2663 10.0878 16.0544 10 15.8334 10Z" fill="white"/>
</svg>
