<svg width="21" height="21" viewBox="0 0 21 21" fill="none" xmlns="http://www.w3.org/2000/svg">
<path fill-rule="evenodd" clip-rule="evenodd" d="M20.58 10.7386C20.58 9.99406 20.5132 9.27815 20.3891 8.59088H10.5V12.6525H16.1509C15.9075 13.965 15.1677 15.077 14.0557 15.8216V18.4561H17.4491C19.4345 16.6282 20.58 13.9363 20.58 10.7386Z" fill="#4285F4"/>
<path fill-rule="evenodd" clip-rule="evenodd" d="M10.5 20.9998C13.335 20.9998 15.7118 20.0596 17.4491 18.456L14.0557 15.8214C13.1154 16.4514 11.9127 16.8237 10.5 16.8237C7.7652 16.8237 5.45043 14.9766 4.62475 12.4948H1.11679V15.2153C2.84452 18.6469 6.39543 20.9998 10.5 20.9998Z" fill="#34A853"/>
<path fill-rule="evenodd" clip-rule="evenodd" d="M4.62477 12.4951C4.41477 11.8651 4.29545 11.1922 4.29545 10.5001C4.29545 9.80806 4.41477 9.13511 4.62477 8.50511V5.78465H1.11682C0.405682 7.20215 0 8.80579 0 10.5001C0 12.1944 0.405682 13.7981 1.11682 15.2156L4.62477 12.4951Z" fill="#FBBC05"/>
<path fill-rule="evenodd" clip-rule="evenodd" d="M10.5 4.17614C12.0416 4.17614 13.4257 4.70591 14.5138 5.74636L17.5254 2.73477C15.707 1.04045 13.3302 0 10.5 0C6.39543 0 2.84452 2.35295 1.11679 5.78454L4.62475 8.505C5.45043 6.02318 7.7652 4.17614 10.5 4.17614Z" fill="#EA4335"/>
</svg>
