<svg width="183" height="149" viewBox="0 0 183 149" fill="none" xmlns="http://www.w3.org/2000/svg">
<path d="M45.1112 8.3074C37.135 8.3074 29.4856 11.4759 23.8456 17.1159C18.2056 22.7559 15.0371 30.4053 15.0371 38.3815C15.0371 58.6815 41.5399 81.613 42.6677 82.5904C43.3486 83.1728 44.2152 83.4928 45.1112 83.4928C46.0072 83.4928 46.8738 83.1728 47.5547 82.5904C48.8704 81.613 75.1853 58.6815 75.1853 38.3815C75.1853 30.4053 72.0167 22.7559 66.3768 17.1159C60.7368 11.4759 53.0873 8.3074 45.1112 8.3074ZM45.1112 74.6583C37.104 67.1398 22.5556 50.9374 22.5556 38.3815C22.5556 32.3994 24.932 26.6623 29.162 22.4323C33.392 18.2023 39.1291 15.8259 45.1112 15.8259C51.0933 15.8259 56.8304 18.2023 61.0604 22.4323C65.2904 26.6623 67.6667 32.3994 67.6667 38.3815C67.6667 50.9374 53.1184 67.1774 45.1112 74.6583ZM45.1112 23.3444C42.1371 23.3444 39.2299 24.2263 36.7571 25.8786C34.2842 27.5309 32.3569 29.8794 31.2188 32.627C30.0807 35.3747 29.7829 38.3982 30.3631 41.3151C30.9433 44.232 32.3754 46.9113 34.4784 49.0143C36.5814 51.1172 39.2607 52.5494 42.1776 53.1296C45.0945 53.7098 48.1179 53.412 50.8656 52.2739C53.6133 51.1358 55.9617 49.2084 57.614 46.7356C59.2663 44.2628 60.1482 41.3555 60.1482 38.3815C60.1482 34.3934 58.564 30.5687 55.744 27.7487C52.924 24.9287 49.0993 23.3444 45.1112 23.3444ZM45.1112 45.9C43.6242 45.9 42.1705 45.459 40.9341 44.6329C39.6977 43.8067 38.734 42.6325 38.165 41.2587C37.5959 39.8849 37.447 38.3731 37.7371 36.9147C38.0272 35.4562 38.7433 34.1166 39.7948 33.0651C40.8463 32.0136 42.1859 31.2975 43.6444 31.0074C45.1028 30.7173 46.6146 30.8662 47.9884 31.4353C49.3622 32.0043 50.5365 32.968 51.3626 34.2044C52.1887 35.4408 52.6297 36.8945 52.6297 38.3815C52.6297 40.3755 51.8376 42.2879 50.4276 43.6979C49.0176 45.1079 47.1052 45.9 45.1112 45.9Z" fill="#FABE12"/>
<path d="M61 62H93.3548V118H123" stroke="#FABE12" stroke-width="6"/>
<path d="M137.889 65.5074C129.913 65.5074 122.263 68.6759 116.623 74.3159C110.983 79.9559 107.815 87.6053 107.815 95.5815C107.815 115.881 134.318 138.813 135.445 139.79C136.126 140.373 136.993 140.693 137.889 140.693C138.785 140.693 139.652 140.373 140.333 139.79C141.648 138.813 167.963 115.881 167.963 95.5815C167.963 87.6053 164.795 79.9559 159.155 74.3159C153.515 68.6759 145.865 65.5074 137.889 65.5074ZM137.889 131.858C129.882 124.34 115.333 108.137 115.333 95.5815C115.333 89.5994 117.71 83.8623 121.94 79.6323C126.17 75.4023 131.907 73.0259 137.889 73.0259C143.871 73.0259 149.608 75.4023 153.838 79.6323C158.068 83.8623 160.445 89.5994 160.445 95.5815C160.445 108.137 145.896 124.377 137.889 131.858ZM137.889 80.5444C134.915 80.5444 132.008 81.4264 129.535 83.0786C127.062 84.7309 125.135 87.0794 123.997 89.8271C122.858 92.5747 122.561 95.5982 123.141 98.5151C123.721 101.432 125.153 104.111 127.256 106.214C129.359 108.317 132.039 109.749 134.955 110.33C137.872 110.91 140.896 110.612 143.643 109.474C146.391 108.336 148.74 106.408 150.392 103.936C152.044 101.463 152.926 98.5555 152.926 95.5815C152.926 91.5934 151.342 87.7687 148.522 84.9487C145.702 82.1287 141.877 80.5444 137.889 80.5444ZM137.889 103.1C136.402 103.1 134.948 102.659 133.712 101.833C132.476 101.007 131.512 99.8325 130.943 98.4587C130.374 97.0849 130.225 95.5731 130.515 94.1147C130.805 92.6562 131.521 91.3166 132.573 90.2651C133.624 89.2136 134.964 88.4975 136.422 88.2074C137.881 87.9173 139.392 88.0662 140.766 88.6353C142.14 89.2043 143.314 90.168 144.14 91.4044C144.967 92.6408 145.408 94.0945 145.408 95.5815C145.408 97.5755 144.615 99.4879 143.205 100.898C141.795 102.308 139.883 103.1 137.889 103.1Z" fill="#FABE12"/>
</svg>
