<svg width="179" height="54" viewBox="0 0 179 54" fill="none" xmlns="http://www.w3.org/2000/svg">
<path d="M59.8379 43C59.3259 43 58.8779 42.824 58.4939 42.472C58.1419 42.12 57.9659 41.672 57.9659 41.128V7.384C57.9659 6.872 58.1419 6.44 58.4939 6.088C58.8779 5.704 59.3259 5.512 59.8379 5.512C60.3499 5.512 60.7819 5.704 61.1339 6.088C61.5179 6.44 61.7099 6.872 61.7099 7.384V39.448H80.4779C80.9899 39.448 81.4219 39.624 81.7739 39.976C82.1579 40.296 82.3499 40.712 82.3499 41.224C82.3499 41.736 82.1579 42.168 81.7739 42.52C81.4219 42.84 80.9899 43 80.4779 43H59.8379ZM99.0929 43.24C96.5329 43.24 94.2449 42.664 92.2289 41.512C90.2129 40.36 88.6289 38.776 87.4769 36.76C86.3249 34.744 85.7489 32.456 85.7489 29.896C85.7489 27.304 86.3249 25 87.4769 22.984C88.6289 20.968 90.2129 19.384 92.2289 18.232C94.2449 17.08 96.5329 16.504 99.0929 16.504C101.653 16.504 103.925 17.08 105.909 18.232C107.925 19.384 109.509 20.968 110.661 22.984C111.813 25 112.405 27.304 112.437 29.896C112.437 32.456 111.845 34.744 110.661 36.76C109.509 38.776 107.925 40.36 105.909 41.512C103.925 42.664 101.653 43.24 99.0929 43.24ZM99.0929 39.88C100.949 39.88 102.613 39.448 104.085 38.584C105.557 37.72 106.709 36.536 107.541 35.032C108.373 33.528 108.789 31.816 108.789 29.896C108.789 27.976 108.373 26.264 107.541 24.76C106.709 23.224 105.557 22.024 104.085 21.16C102.613 20.296 100.949 19.864 99.0929 19.864C97.2369 19.864 95.5729 20.296 94.1009 21.16C92.6289 22.024 91.4609 23.224 90.5969 24.76C89.7649 26.264 89.3489 27.976 89.3489 29.896C89.3489 31.816 89.7649 33.528 90.5969 35.032C91.4609 36.536 92.6289 37.72 94.1009 38.584C95.5729 39.448 97.2369 39.88 99.0929 39.88ZM130.473 43.24C127.945 43.24 125.705 42.68 123.753 41.56C121.801 40.408 120.265 38.824 119.145 36.808C118.057 34.792 117.513 32.488 117.513 29.896C117.513 27.272 118.089 24.952 119.241 22.936C120.393 20.92 121.977 19.352 123.993 18.232C126.009 17.08 128.297 16.504 130.857 16.504C133.449 16.504 135.737 17.08 137.721 18.232C139.737 19.352 141.305 20.92 142.425 22.936C143.577 24.952 144.169 27.272 144.201 29.896L142.041 31.048C142.041 33.416 141.545 35.528 140.553 37.384C139.561 39.208 138.185 40.648 136.425 41.704C134.697 42.728 132.713 43.24 130.473 43.24ZM130.953 53.368C128.425 53.368 126.201 52.888 124.281 51.928C122.361 51 120.777 49.72 119.529 48.088C119.177 47.704 119.017 47.288 119.049 46.84C119.113 46.392 119.353 46.024 119.769 45.736C120.185 45.448 120.649 45.352 121.161 45.448C121.673 45.544 122.073 45.784 122.361 46.168C123.289 47.32 124.473 48.248 125.913 48.952C127.385 49.656 129.081 50.008 131.001 50.008C132.793 50.008 134.409 49.576 135.849 48.712C137.289 47.848 138.425 46.632 139.257 45.064C140.121 43.496 140.553 41.656 140.553 39.544V32.248L141.945 29.464L144.201 29.896V39.688C144.201 42.28 143.625 44.6 142.473 46.648C141.321 48.728 139.753 50.36 137.769 51.544C135.785 52.76 133.513 53.368 130.953 53.368ZM130.857 39.88C132.745 39.88 134.409 39.464 135.849 38.632C137.321 37.768 138.473 36.584 139.305 35.08C140.137 33.576 140.553 31.848 140.553 29.896C140.553 27.944 140.137 26.216 139.305 24.712C138.473 23.176 137.321 21.992 135.849 21.16C134.409 20.296 132.745 19.864 130.857 19.864C128.969 19.864 127.289 20.296 125.817 21.16C124.345 21.992 123.193 23.176 122.361 24.712C121.529 26.216 121.113 27.944 121.113 29.896C121.113 31.848 121.529 33.576 122.361 35.08C123.193 36.584 124.345 37.768 125.817 38.632C127.289 39.464 128.969 39.88 130.857 39.88ZM162.622 43.24C160.062 43.24 157.774 42.664 155.758 41.512C153.742 40.36 152.158 38.776 151.006 36.76C149.854 34.744 149.278 32.456 149.278 29.896C149.278 27.304 149.854 25 151.006 22.984C152.158 20.968 153.742 19.384 155.758 18.232C157.774 17.08 160.062 16.504 162.622 16.504C165.182 16.504 167.454 17.08 169.438 18.232C171.454 19.384 173.038 20.968 174.19 22.984C175.342 25 175.934 27.304 175.966 29.896C175.966 32.456 175.374 34.744 174.19 36.76C173.038 38.776 171.454 40.36 169.438 41.512C167.454 42.664 165.182 43.24 162.622 43.24ZM162.622 39.88C164.478 39.88 166.142 39.448 167.614 38.584C169.086 37.72 170.238 36.536 171.07 35.032C171.902 33.528 172.318 31.816 172.318 29.896C172.318 27.976 171.902 26.264 171.07 24.76C170.238 23.224 169.086 22.024 167.614 21.16C166.142 20.296 164.478 19.864 162.622 19.864C160.766 19.864 159.102 20.296 157.63 21.16C156.158 22.024 154.99 23.224 154.126 24.76C153.294 26.264 152.878 27.976 152.878 29.896C152.878 31.816 153.294 33.528 154.126 35.032C154.99 36.536 156.158 37.72 157.63 38.584C159.102 39.448 160.766 39.88 162.622 39.88Z" fill="black"/>
<path fill-rule="evenodd" clip-rule="evenodd" d="M11.2593 16.2593V43L0 31.7407V5H1.14441e-05H26.7408L38 16.2593L11.2593 16.2593Z" fill="#CCCCCC"/>
<path fill-rule="evenodd" clip-rule="evenodd" d="M26.7407 31.7407L26.7407 5L38 16.2593V43H38H11.2592L-1.14441e-05 31.7407L26.7407 31.7407H26.7407Z" fill="black"/>
</svg>
