<svg width="17" height="17" viewBox="0 0 17 17" fill="none" xmlns="http://www.w3.org/2000/svg">
<path d="M13.25 9.74992C13.0511 9.74992 12.8603 9.82894 12.7197 9.96959C12.579 10.1102 12.5 10.301 12.5 10.4999V10.7849L11.39 9.67492C10.9981 9.28608 10.4683 9.06789 9.91625 9.06789C9.36416 9.06789 8.83443 9.28608 8.4425 9.67492L7.9175 10.1999L6.0575 8.33992C5.66009 7.96162 5.13242 7.75064 4.58375 7.75064C4.03508 7.75064 3.50741 7.96162 3.11 8.33992L2 9.44992V5.24992C2 5.05101 2.07902 4.86024 2.21967 4.71959C2.36032 4.57894 2.55109 4.49992 2.75 4.49992H8C8.19891 4.49992 8.38968 4.4209 8.53033 4.28025C8.67098 4.1396 8.75 3.94883 8.75 3.74992C8.75 3.55101 8.67098 3.36024 8.53033 3.21959C8.38968 3.07894 8.19891 2.99992 8 2.99992H2.75C2.15326 2.99992 1.58097 3.23697 1.15901 3.65893C0.737053 4.08089 0.5 4.65318 0.5 5.24992V14.2499C0.5 14.8467 0.737053 15.419 1.15901 15.8409C1.58097 16.2629 2.15326 16.4999 2.75 16.4999H11.75C12.3467 16.4999 12.919 16.2629 13.341 15.8409C13.7629 15.419 14 14.8467 14 14.2499V10.4999C14 10.301 13.921 10.1102 13.7803 9.96959C13.6397 9.82894 13.4489 9.74992 13.25 9.74992ZM2.75 14.9999C2.55109 14.9999 2.36032 14.9209 2.21967 14.7803C2.07902 14.6396 2 14.4488 2 14.2499V11.5724L4.175 9.39742C4.28518 9.29242 4.43155 9.23385 4.58375 9.23385C4.73595 9.23385 4.88232 9.29242 4.9925 9.39742L7.37 11.7749L10.595 14.9999H2.75ZM12.5 14.2499C12.4989 14.3935 12.4516 14.5329 12.365 14.6474L8.9825 11.2499L9.5075 10.7249C9.56127 10.67 9.62545 10.6264 9.69628 10.5967C9.76711 10.5669 9.84317 10.5516 9.92 10.5516C9.99683 10.5516 10.0729 10.5669 10.1437 10.5967C10.2146 10.6264 10.2787 10.67 10.3325 10.7249L12.5 12.9074V14.2499ZM16.0325 3.21742L13.7825 0.967422C13.7112 0.899142 13.6271 0.845618 13.535 0.809922C13.3524 0.734909 13.1476 0.734909 12.965 0.809922C12.8729 0.845618 12.7888 0.899142 12.7175 0.967422L10.4675 3.21742C10.3976 3.28735 10.3421 3.37037 10.3043 3.46174C10.2664 3.5531 10.2469 3.65103 10.2469 3.74992C10.2469 3.94965 10.3263 4.14119 10.4675 4.28242C10.6087 4.42365 10.8003 4.50299 11 4.50299C11.1997 4.50299 11.3913 4.42365 11.5325 4.28242L12.5 3.30742V7.49992C12.5 7.69883 12.579 7.8896 12.7197 8.03025C12.8603 8.1709 13.0511 8.24992 13.25 8.24992C13.4489 8.24992 13.6397 8.1709 13.7803 8.03025C13.921 7.8896 14 7.69883 14 7.49992V3.30742L14.9675 4.28242C15.0372 4.35272 15.1202 4.40851 15.2116 4.44659C15.303 4.48467 15.401 4.50427 15.5 4.50427C15.599 4.50427 15.697 4.48467 15.7884 4.44659C15.8798 4.40851 15.9628 4.35272 16.0325 4.28242C16.1028 4.2127 16.1586 4.12975 16.1967 4.03835C16.2347 3.94696 16.2543 3.84893 16.2543 3.74992C16.2543 3.65091 16.2347 3.55288 16.1967 3.46149C16.1586 3.3701 16.1028 3.28714 16.0325 3.21742Z" fill="#22477B"/>
</svg>
