<svg width="18" height="18" viewBox="0 0 18 18" fill="none" xmlns="http://www.w3.org/2000/svg">
<path d="M9.49169 9.83325L7.57502 11.7416C7.49691 11.8191 7.43492 11.9112 7.39261 12.0128C7.3503 12.1143 7.32852 12.2232 7.32852 12.3333C7.32852 12.4433 7.3503 12.5522 7.39261 12.6537C7.43492 12.7553 7.49691 12.8475 7.57502 12.9249C7.65249 13.003 7.74466 13.065 7.84621 13.1073C7.94776 13.1496 8.05668 13.1714 8.16669 13.1714C8.2767 13.1714 8.38562 13.1496 8.48717 13.1073C8.58872 13.065 8.68089 13.003 8.75835 12.9249L12.0917 9.59159C12.1676 9.51233 12.227 9.41888 12.2667 9.31659C12.35 9.1137 12.35 8.88614 12.2667 8.68325C12.227 8.58096 12.1676 8.48751 12.0917 8.40825L8.75835 5.07492C8.68066 4.99722 8.58841 4.93559 8.4869 4.89354C8.38538 4.85149 8.27657 4.82984 8.16669 4.82984C8.0568 4.82984 7.948 4.85149 7.84648 4.89354C7.74496 4.93559 7.65272 4.99722 7.57502 5.07492C7.49732 5.15262 7.43569 5.24486 7.39364 5.34638C7.35159 5.4479 7.32994 5.5567 7.32994 5.66659C7.32994 5.77647 7.35159 5.88528 7.39364 5.98679C7.43569 6.08831 7.49732 6.18055 7.57502 6.25825L9.49169 8.16659H1.50002C1.27901 8.16659 1.06704 8.25438 0.910765 8.41067C0.754484 8.56695 0.666687 8.77891 0.666687 8.99992C0.666687 9.22093 0.754484 9.4329 0.910765 9.58918C1.06704 9.74546 1.27901 9.83325 1.50002 9.83325H9.49169ZM9.00002 0.666587C7.4426 0.659634 5.91439 1.08926 4.58874 1.90675C3.2631 2.72423 2.19307 3.89684 1.50002 5.29159C1.40056 5.4905 1.3842 5.72077 1.45453 5.93175C1.52485 6.14273 1.67611 6.31713 1.87502 6.41659C2.07393 6.51604 2.30421 6.53241 2.51519 6.46208C2.72616 6.39176 2.90056 6.2405 3.00002 6.04159C3.52685 4.97769 4.32821 4.07377 5.32131 3.42324C6.31441 2.77272 7.46321 2.39918 8.64898 2.34125C9.83476 2.28331 11.0145 2.54307 12.0663 3.09368C13.1181 3.64429 14.0037 4.46578 14.6318 5.47325C15.2598 6.48072 15.6074 7.63763 15.6387 8.82441C15.67 10.0112 15.3837 11.1848 14.8096 12.2239C14.2355 13.2631 13.3943 14.13 12.373 14.7353C11.3516 15.3405 10.1872 15.662 9.00002 15.6666C7.75742 15.672 6.53848 15.3269 5.4831 14.671C4.42771 14.015 3.57865 13.0748 3.03335 11.9583C2.9339 11.7593 2.7595 11.6081 2.54852 11.5378C2.33754 11.4674 2.10727 11.4838 1.90835 11.5833C1.70944 11.6827 1.55818 11.8571 1.48786 12.0681C1.41753 12.2791 1.4339 12.5093 1.53335 12.7083C2.19404 14.0378 3.19795 15.1668 4.44125 15.9783C5.68454 16.7898 7.12206 17.2544 8.60512 17.3241C10.0882 17.3937 11.5629 17.0659 12.8768 16.3745C14.1907 15.6831 15.296 14.6532 16.0784 13.3914C16.8608 12.1296 17.2919 10.6817 17.3271 9.19742C17.3623 7.71314 17.0003 6.24641 16.2786 4.94895C15.5568 3.65148 14.5016 2.57039 13.2219 1.81751C11.9423 1.06462 10.4847 0.667284 9.00002 0.666587Z" fill="black"/>
</svg>
