<svg width="16" height="16" viewBox="0 0 16 16" fill="none" xmlns="http://www.w3.org/2000/svg">
<path d="M8.00002 0.5C7.01511 0.5 6.03984 0.693993 5.1299 1.0709C4.21995 1.44781 3.39316 2.00026 2.69672 2.6967C1.2902 4.10322 0.500022 6.01088 0.500022 8C0.493465 9.73185 1.09312 11.4114 2.19502 12.7475L0.695022 14.2475C0.590953 14.353 0.520456 14.4869 0.492426 14.6324C0.464395 14.7779 0.480087 14.9284 0.537522 15.065C0.599815 15.1999 0.7008 15.3133 0.827657 15.3908C0.954514 15.4682 1.10152 15.5063 1.25002 15.5H8.00002C9.98915 15.5 11.8968 14.7098 13.3033 13.3033C14.7098 11.8968 15.5 9.98912 15.5 8C15.5 6.01088 14.7098 4.10322 13.3033 2.6967C11.8968 1.29018 9.98915 0.5 8.00002 0.5ZM8.00002 14H3.05752L3.75502 13.3025C3.89471 13.162 3.97312 12.9719 3.97312 12.7738C3.97312 12.5756 3.89471 12.3855 3.75502 12.245C2.77296 11.264 2.1614 9.9729 2.02454 8.59159C1.88768 7.21029 2.23398 5.82425 3.00444 4.66964C3.77491 3.51503 4.92186 2.66327 6.24991 2.25948C7.57795 1.85569 9.00492 1.92485 10.2877 2.45519C11.5705 2.98552 12.6297 3.94421 13.2849 5.16792C13.94 6.39163 14.1507 7.80466 13.8809 9.16625C13.6111 10.5279 12.8775 11.7538 11.8052 12.6352C10.7328 13.5166 9.38809 13.9989 8.00002 14ZM11.75 7.25H4.25002C4.05111 7.25 3.86034 7.32902 3.71969 7.46967C3.57904 7.61032 3.50002 7.80109 3.50002 8C3.50002 8.19891 3.57904 8.38968 3.71969 8.53033C3.86034 8.67098 4.05111 8.75 4.25002 8.75H11.75C11.9489 8.75 12.1397 8.67098 12.2804 8.53033C12.421 8.38968 12.5 8.19891 12.5 8C12.5 7.80109 12.421 7.61032 12.2804 7.46967C12.1397 7.32902 11.9489 7.25 11.75 7.25ZM10.25 10.25H5.75002C5.55111 10.25 5.36034 10.329 5.21969 10.4697C5.07904 10.6103 5.00002 10.8011 5.00002 11C5.00002 11.1989 5.07904 11.3897 5.21969 11.5303C5.36034 11.671 5.55111 11.75 5.75002 11.75H10.25C10.4489 11.75 10.6397 11.671 10.7804 11.5303C10.921 11.3897 11 11.1989 11 11C11 10.8011 10.921 10.6103 10.7804 10.4697C10.6397 10.329 10.4489 10.25 10.25 10.25ZM5.75002 5.75H10.25C10.4489 5.75 10.6397 5.67098 10.7804 5.53033C10.921 5.38968 11 5.19891 11 5C11 4.80109 10.921 4.61032 10.7804 4.46967C10.6397 4.32902 10.4489 4.25 10.25 4.25H5.75002C5.55111 4.25 5.36034 4.32902 5.21969 4.46967C5.07904 4.61032 5.00002 4.80109 5.00002 5C5.00002 5.19891 5.07904 5.38968 5.21969 5.53033C5.36034 5.67098 5.55111 5.75 5.75002 5.75Z" fill="#22477B"/>
</svg>
