<svg width="74" height="74" viewBox="0 0 74 74" fill="none" xmlns="http://www.w3.org/2000/svg">
<path d="M37 0.333328C32.1849 0.333328 27.4169 1.28174 22.9683 3.12441C18.5197 4.96708 14.4776 7.66793 11.0727 11.0727C4.19641 17.9491 0.333331 27.2754 0.333331 37C0.301276 45.4668 3.2329 53.678 8.62 60.21L1.28666 67.5433C0.777886 68.059 0.433233 68.7137 0.296194 69.425C0.159156 70.1363 0.235872 70.8723 0.516664 71.54C0.821209 72.1997 1.31491 72.7541 1.9351 73.1328C2.55529 73.5114 3.274 73.6972 4 73.6667H37C46.7246 73.6667 56.0509 69.8036 62.9273 62.9272C69.8036 56.0509 73.6667 46.7246 73.6667 37C73.6667 27.2754 69.8036 17.9491 62.9273 11.0727C56.0509 4.19641 46.7246 0.333328 37 0.333328ZM37 66.3333H12.8367L16.2467 62.9233C16.9296 62.2363 17.3129 61.307 17.3129 60.3383C17.3129 59.3696 16.9296 58.4403 16.2467 57.7533C11.4455 52.9575 8.45564 46.6453 7.78653 39.8922C7.11743 33.1392 8.81045 26.363 12.5772 20.7182C16.3439 15.0735 21.9512 10.9093 28.4439 8.93523C34.9365 6.96115 41.9128 7.29928 48.1841 9.89201C54.4554 12.4847 59.6338 17.1717 62.8369 23.1543C66.0401 29.1369 67.0699 36.045 65.7508 42.7017C64.4317 49.3584 60.8455 55.3518 55.603 59.6609C50.3605 63.9699 43.7861 66.328 37 66.3333ZM55.3333 33.3333H18.6667C17.6942 33.3333 16.7616 33.7196 16.0739 34.4073C15.3863 35.0949 15 36.0275 15 37C15 37.9725 15.3863 38.9051 16.0739 39.5927C16.7616 40.2804 17.6942 40.6667 18.6667 40.6667H55.3333C56.3058 40.6667 57.2384 40.2804 57.9261 39.5927C58.6137 38.9051 59 37.9725 59 37C59 36.0275 58.6137 35.0949 57.9261 34.4073C57.2384 33.7196 56.3058 33.3333 55.3333 33.3333ZM48 48H26C25.0275 48 24.0949 48.3863 23.4073 49.0739C22.7196 49.7616 22.3333 50.6942 22.3333 51.6667C22.3333 52.6391 22.7196 53.5718 23.4073 54.2594C24.0949 54.947 25.0275 55.3333 26 55.3333H48C48.9725 55.3333 49.9051 54.947 50.5927 54.2594C51.2804 53.5718 51.6667 52.6391 51.6667 51.6667C51.6667 50.6942 51.2804 49.7616 50.5927 49.0739C49.9051 48.3863 48.9725 48 48 48ZM26 26H48C48.9725 26 49.9051 25.6137 50.5927 24.9261C51.2804 24.2384 51.6667 23.3058 51.6667 22.3333C51.6667 21.3609 51.2804 20.4282 50.5927 19.7406C49.9051 19.053 48.9725 18.6667 48 18.6667H26C25.0275 18.6667 24.0949 19.053 23.4073 19.7406C22.7196 20.4282 22.3333 21.3609 22.3333 22.3333C22.3333 23.3058 22.7196 24.2384 23.4073 24.9261C24.0949 25.6137 25.0275 26 26 26Z" fill="#22477B"/>
</svg>
