<svg width="30" height="31" viewBox="0 0 30 31" fill="none" xmlns="http://www.w3.org/2000/svg">
<rect x="0.651123" y="0.824219" width="29.1279" height="29.9533" fill="#FF0000" fill-opacity="0.01"/>
<path fill-rule="evenodd" clip-rule="evenodd" d="M26.2055 16.636L26.5667 17.1312C27.1155 17.8887 26.8799 18.9603 26.0618 19.4142L25.5272 19.7097C24.9499 20.0358 24.6366 20.6948 24.757 21.355L24.8683 21.9567C25.0366 22.8779 24.3635 23.7418 23.434 23.795L22.8269 23.8296C22.1629 23.8682 21.5946 24.3288 21.4211 24.9744L21.2619 25.5668C21.0173 26.4733 20.0399 26.9592 19.1778 26.5998L18.6147 26.3668C18.0037 26.1086 17.2956 26.279 16.8581 26.7835L16.4581 27.2441C15.8471 27.9536 14.7597 27.9629 14.1384 27.264L13.7345 26.8075C13.2866 26.3083 12.5785 26.1485 11.9676 26.4148L11.4096 26.657C10.5527 27.0258 9.57147 26.5599 9.31128 25.6573L9.143 25.065C8.96048 24.4194 8.38702 23.9681 7.72296 23.9388L7.11584 23.9148C6.18253 23.8762 5.49904 23.0216 5.65308 22.0951L5.75405 21.4881C5.86408 20.8292 5.54694 20.1689 4.95924 19.8535L4.42074 19.5619C3.59745 19.1213 3.34762 18.0537 3.88612 17.287L4.23692 16.7878C4.62138 16.2434 4.61232 15.5112 4.22268 14.9681L3.86153 14.4729C3.31267 13.7155 3.54826 12.6439 4.36119 12.1873L4.89581 11.8918C5.47315 11.567 5.78642 10.9067 5.66732 10.2465L5.556 9.64478C5.38772 8.72362 6.06084 7.85969 6.99028 7.80645L7.5961 7.77184C8.26146 7.73323 8.82844 7.27265 9.0019 6.62704L9.16112 6.03467C9.40578 5.12815 10.3831 4.64228 11.2452 5.00169L11.8083 5.23464C12.4193 5.49156 13.1274 5.3225 13.5649 4.81799L13.9649 4.35608C14.5759 3.6479 15.6646 3.63858 16.2898 4.34143L16.6937 4.79802C17.1416 5.29721 17.8497 5.45695 18.4607 5.19072L19.0186 4.94844C19.8755 4.57971 20.8567 5.04562 21.1169 5.94815L21.2852 6.54051C21.4677 7.18613 22.0412 7.63739 22.7052 7.66668L23.3124 7.69064C24.2457 7.72924 24.9292 8.58385 24.7751 9.51034L24.6742 10.1173C24.5641 10.7763 24.8813 11.4365 25.469 11.752L26.0075 12.0435C26.8308 12.4842 27.0806 13.5517 26.5421 14.3185L26.1913 14.8177C25.8068 15.3608 25.8159 16.0929 26.2055 16.636ZM16.4154 20.8572C17.0756 20.6735 17.6438 20.314 18.0814 19.7803C19.2891 18.3013 18.827 16.1315 17.1273 15.1664C16.6693 14.9106 16.1898 14.7115 15.707 14.5111C15.6222 14.4759 15.5372 14.4406 15.4523 14.405C15.1248 14.2692 14.8076 14.1095 14.5332 13.8859C13.9843 13.4492 14.0905 12.7357 14.73 12.4549C14.9086 12.3763 15.1015 12.347 15.2944 12.3377C16.0348 12.2991 16.7377 12.4349 17.4069 12.7597C17.7435 12.9248 17.8548 12.8715 17.9662 12.5241C18.0598 12.2373 18.1417 11.9449 18.2234 11.6532C18.2467 11.5698 18.2701 11.4864 18.2937 11.4032C18.3662 11.1503 18.2743 10.9853 18.0387 10.8788C17.6102 10.6884 17.1675 10.5486 16.7053 10.4754C16.1034 10.3844 16.1034 10.3784 16.0984 9.78277L16.0982 9.76725C16.0956 9.33411 16.0943 9.11814 15.9857 9.01044C15.8777 8.90333 15.6634 8.90333 15.2361 8.90333C15.1942 8.90333 15.1524 8.90273 15.1107 8.90214C15.0275 8.90096 14.9444 8.89978 14.8607 8.90333C14.4555 8.91264 14.3882 8.98453 14.3805 9.39319V9.94163C14.3754 10.4756 14.3753 10.4756 13.8858 10.655C13.8774 10.6581 13.8688 10.6613 13.8601 10.6645C12.6174 11.121 11.8472 11.9743 11.7656 13.3428C11.6931 14.5554 12.3184 15.3701 13.306 15.9678C13.7264 16.2237 14.1798 16.4071 14.6334 16.5906C14.8335 16.6715 15.0336 16.7525 15.2309 16.8397C15.4808 16.9502 15.7215 17.082 15.9338 17.2564C16.5552 17.7715 16.44 18.6301 15.7034 18.9549C15.3086 19.1293 14.8892 19.1732 14.4659 19.12C13.807 19.0375 13.1753 18.8631 12.5837 18.5529C12.2368 18.3732 12.1358 18.4225 12.0154 18.8005C11.9353 19.0497 11.8658 19.3035 11.7965 19.5567C11.775 19.6349 11.7536 19.713 11.732 19.7909C11.6116 20.2382 11.6543 20.3447 12.0737 20.5483C12.6083 20.8106 13.1805 20.9463 13.7682 21.0382C14.2251 21.1114 14.2394 21.13 14.2445 21.6106C14.2445 21.8236 14.2445 22.0419 14.2497 22.2602C14.2549 22.5318 14.3843 22.6915 14.6639 22.6968C14.9811 22.7061 15.2995 22.7061 15.6167 22.6968C15.8769 22.6915 16.0115 22.5504 16.0115 22.2842C16.0115 22.1853 16.0131 22.086 16.0147 21.9866C16.0178 21.7875 16.021 21.5881 16.0115 21.391C15.996 21.0901 16.1267 20.9344 16.4154 20.8572Z" fill="black"/>
<mask id="mask0_127_3462" style="mask-type:luminance" maskUnits="userSpaceOnUse" x="3" y="3" width="24" height="25">
<path fill-rule="evenodd" clip-rule="evenodd" d="M26.2055 16.636L26.5667 17.1312C27.1155 17.8887 26.8799 18.9603 26.0618 19.4142L25.5272 19.7097C24.9499 20.0358 24.6366 20.6948 24.757 21.355L24.8683 21.9567C25.0366 22.8779 24.3635 23.7418 23.434 23.795L22.8269 23.8296C22.1629 23.8682 21.5946 24.3288 21.4211 24.9744L21.2619 25.5668C21.0173 26.4733 20.0399 26.9592 19.1778 26.5998L18.6147 26.3668C18.0037 26.1086 17.2956 26.279 16.8581 26.7835L16.4581 27.2441C15.8471 27.9536 14.7597 27.9629 14.1384 27.264L13.7345 26.8075C13.2866 26.3083 12.5785 26.1485 11.9676 26.4148L11.4096 26.657C10.5527 27.0258 9.57147 26.5599 9.31128 25.6573L9.143 25.065C8.96048 24.4194 8.38702 23.9681 7.72296 23.9388L7.11584 23.9148C6.18253 23.8762 5.49904 23.0216 5.65308 22.0951L5.75405 21.4881C5.86408 20.8292 5.54694 20.1689 4.95924 19.8535L4.42074 19.5619C3.59745 19.1213 3.34762 18.0537 3.88612 17.287L4.23692 16.7878C4.62138 16.2434 4.61232 15.5112 4.22268 14.9681L3.86153 14.4729C3.31267 13.7155 3.54826 12.6439 4.36119 12.1873L4.89581 11.8918C5.47315 11.567 5.78642 10.9067 5.66732 10.2465L5.556 9.64478C5.38772 8.72362 6.06084 7.85969 6.99028 7.80645L7.5961 7.77184C8.26146 7.73323 8.82844 7.27265 9.0019 6.62704L9.16112 6.03467C9.40578 5.12815 10.3831 4.64228 11.2452 5.00169L11.8083 5.23464C12.4193 5.49156 13.1274 5.3225 13.5649 4.81799L13.9649 4.35608C14.5759 3.6479 15.6646 3.63858 16.2898 4.34143L16.6937 4.79802C17.1416 5.29721 17.8497 5.45695 18.4607 5.19072L19.0186 4.94844C19.8755 4.57971 20.8567 5.04562 21.1169 5.94815L21.2852 6.54051C21.4677 7.18613 22.0412 7.63739 22.7052 7.66668L23.3124 7.69064C24.2457 7.72924 24.9292 8.58385 24.7751 9.51034L24.6742 10.1173C24.5641 10.7763 24.8813 11.4365 25.469 11.752L26.0075 12.0435C26.8308 12.4842 27.0806 13.5517 26.5421 14.3185L26.1913 14.8177C25.8068 15.3608 25.8159 16.0929 26.2055 16.636ZM16.4154 20.8572C17.0756 20.6735 17.6438 20.314 18.0814 19.7803C19.2891 18.3013 18.827 16.1315 17.1273 15.1664C16.6693 14.9106 16.1898 14.7115 15.707 14.5111C15.6222 14.4759 15.5372 14.4406 15.4523 14.405C15.1248 14.2692 14.8076 14.1095 14.5332 13.8859C13.9843 13.4492 14.0905 12.7357 14.73 12.4549C14.9086 12.3763 15.1015 12.347 15.2944 12.3377C16.0348 12.2991 16.7377 12.4349 17.4069 12.7597C17.7435 12.9248 17.8548 12.8715 17.9662 12.5241C18.0598 12.2373 18.1417 11.9449 18.2234 11.6532C18.2467 11.5698 18.2701 11.4864 18.2937 11.4032C18.3662 11.1503 18.2743 10.9853 18.0387 10.8788C17.6102 10.6884 17.1675 10.5486 16.7053 10.4754C16.1034 10.3844 16.1034 10.3784 16.0984 9.78277L16.0982 9.76725C16.0956 9.33411 16.0943 9.11814 15.9857 9.01044C15.8777 8.90333 15.6634 8.90333 15.2361 8.90333C15.1942 8.90333 15.1524 8.90273 15.1107 8.90214C15.0275 8.90096 14.9444 8.89978 14.8607 8.90333C14.4555 8.91264 14.3882 8.98453 14.3805 9.39319V9.94163C14.3754 10.4756 14.3753 10.4756 13.8858 10.655C13.8774 10.6581 13.8688 10.6613 13.8601 10.6645C12.6174 11.121 11.8472 11.9743 11.7656 13.3428C11.6931 14.5554 12.3184 15.3701 13.306 15.9678C13.7264 16.2237 14.1798 16.4071 14.6334 16.5906C14.8335 16.6715 15.0336 16.7525 15.2309 16.8397C15.4808 16.9502 15.7215 17.082 15.9338 17.2564C16.5552 17.7715 16.44 18.6301 15.7034 18.9549C15.3086 19.1293 14.8892 19.1732 14.4659 19.12C13.807 19.0375 13.1753 18.8631 12.5837 18.5529C12.2368 18.3732 12.1358 18.4225 12.0154 18.8005C11.9353 19.0497 11.8658 19.3035 11.7965 19.5567C11.775 19.6349 11.7536 19.713 11.732 19.7909C11.6116 20.2382 11.6543 20.3447 12.0737 20.5483C12.6083 20.8106 13.1805 20.9463 13.7682 21.0382C14.2251 21.1114 14.2394 21.13 14.2445 21.6106C14.2445 21.8236 14.2445 22.0419 14.2497 22.2602C14.2549 22.5318 14.3843 22.6915 14.6639 22.6968C14.9811 22.7061 15.2995 22.7061 15.6167 22.6968C15.8769 22.6915 16.0115 22.5504 16.0115 22.2842C16.0115 22.1853 16.0131 22.086 16.0147 21.9866C16.0178 21.7875 16.021 21.5881 16.0115 21.391C15.996 21.0901 16.1267 20.9344 16.4154 20.8572Z" fill="white"/>
</mask>
<g mask="url(#mask0_127_3462)">
<rect x="0.651123" y="0.824219" width="29.1279" height="29.9533" fill="#22477B"/>
</g>
</svg>
