<svg width="16" height="18" viewBox="0 0 16 18" fill="none" xmlns="http://www.w3.org/2000/svg">
<path d="M6.455 1.7066C6.57951 1.39886 6.79309 1.13532 7.06835 0.949748C7.34362 0.764178 7.66803 0.665039 8 0.665039C8.33198 0.665039 8.65639 0.764178 8.93165 0.949748C9.20692 1.13532 9.42049 1.39886 9.545 1.7066C10.7773 2.04551 11.8643 2.77957 12.639 3.79605C13.4137 4.81253 13.8333 6.05522 13.8333 7.33327V11.2474L15.36 13.5374C15.4437 13.6629 15.4918 13.8088 15.4991 13.9595C15.5065 14.1102 15.4727 14.26 15.4016 14.3931C15.3304 14.5261 15.2244 14.6373 15.095 14.7148C14.9656 14.7924 14.8175 14.8333 14.6667 14.8333H10.8875C10.7872 15.5275 10.4401 16.1624 9.90975 16.6216C9.37945 17.0807 8.70147 17.3335 8 17.3335C7.29854 17.3335 6.62055 17.0807 6.09025 16.6216C5.55995 16.1624 5.21284 15.5275 5.1125 14.8333H1.33334C1.18247 14.8333 1.03442 14.7924 0.904995 14.7148C0.775569 14.6373 0.669616 14.5261 0.598441 14.3931C0.527266 14.26 0.49354 14.1102 0.500859 13.9595C0.508179 13.8088 0.55627 13.6629 0.640003 13.5374L2.16667 11.2474V7.33327C2.16667 4.6466 3.98334 2.38327 6.455 1.7066ZM6.82167 14.8333C6.90773 15.0771 7.06732 15.2883 7.27844 15.4377C7.48955 15.5871 7.7418 15.6673 8.00042 15.6673C8.25903 15.6673 8.51128 15.5871 8.7224 15.4377C8.93351 15.2883 9.0931 15.0771 9.17917 14.8333H6.82084H6.82167ZM8 3.1666C6.89493 3.1666 5.83513 3.60559 5.05372 4.38699C4.27232 5.16839 3.83334 6.2282 3.83334 7.33327V11.4999C3.83337 11.6645 3.78466 11.8255 3.69334 11.9624L2.89084 13.1666H13.1083L12.3058 11.9624C12.2148 11.8254 12.1664 11.6645 12.1667 11.4999V7.33327C12.1667 6.2282 11.7277 5.16839 10.9463 4.38699C10.1649 3.60559 9.10507 3.1666 8 3.1666Z" fill="black"/>
</svg>
