<svg width="16" height="16" viewBox="0 0 16 16" fill="none" xmlns="http://www.w3.org/2000/svg">
<path d="M6.12501 6.87505H8.00001C8.19892 6.87505 8.38968 6.79603 8.53034 6.65538C8.67099 6.51473 8.75001 6.32396 8.75001 6.12505C8.75001 5.92614 8.67099 5.73537 8.53034 5.59472C8.38968 5.45407 8.19892 5.37505 8.00001 5.37505H7.25001V5.00005C7.25001 4.80114 7.17099 4.61037 7.03034 4.46972C6.88968 4.32907 6.69892 4.25005 6.50001 4.25005C6.30109 4.25005 6.11033 4.32907 5.96968 4.46972C5.82902 4.61037 5.75001 4.80114 5.75001 5.00005V5.41255C5.29432 5.50508 4.88928 5.76363 4.6135 6.138C4.33772 6.51237 4.21088 6.97586 4.25761 7.43849C4.30434 7.90112 4.52131 8.32988 4.86638 8.64154C5.21146 8.9532 5.66002 9.12552 6.12501 9.12505H6.87501C6.97446 9.12505 7.06984 9.16456 7.14017 9.23489C7.2105 9.30521 7.25001 9.4006 7.25001 9.50005C7.25001 9.59951 7.2105 9.69489 7.14017 9.76522C7.06984 9.83554 6.97446 9.87505 6.87501 9.87505H5.00001C4.80109 9.87505 4.61033 9.95407 4.46968 10.0947C4.32902 10.2354 4.25001 10.4261 4.25001 10.6251C4.25001 10.824 4.32902 11.0147 4.46968 11.1554C4.61033 11.296 4.80109 11.3751 5.00001 11.3751H5.75001V11.7501C5.75001 11.949 5.82902 12.1397 5.96968 12.2804C6.11033 12.421 6.30109 12.5001 6.50001 12.5001C6.69892 12.5001 6.88968 12.421 7.03034 12.2804C7.17099 12.1397 7.25001 11.949 7.25001 11.7501V11.3376C7.70569 11.245 8.11073 10.9865 8.38651 10.6121C8.66229 10.2377 8.78913 9.77424 8.7424 9.31161C8.69567 8.84899 8.47871 8.42023 8.13363 8.10857C7.78856 7.79691 7.33999 7.62458 6.87501 7.62505H6.12501C6.02555 7.62505 5.93017 7.58554 5.85984 7.51522C5.78951 7.44489 5.75001 7.34951 5.75001 7.25005C5.75001 7.1506 5.78951 7.05521 5.85984 6.98489C5.93017 6.91456 6.02555 6.87505 6.12501 6.87505ZM14.75 8.00005H12.5V1.25005C12.5005 1.11789 12.4661 0.987944 12.4003 0.873361C12.3344 0.758777 12.2395 0.66363 12.125 0.597551C12.011 0.531725 11.8817 0.49707 11.75 0.49707C11.6184 0.49707 11.489 0.531725 11.375 0.597551L9.12501 1.88755L6.87501 0.597551C6.76099 0.531725 6.63166 0.49707 6.50001 0.49707C6.36835 0.49707 6.23902 0.531725 6.12501 0.597551L3.87501 1.88755L1.62501 0.597551C1.51099 0.531725 1.38166 0.49707 1.25001 0.49707C1.11835 0.49707 0.98902 0.531725 0.875006 0.597551C0.760553 0.66363 0.665592 0.758777 0.59974 0.873361C0.533887 0.987944 0.499481 1.11789 0.500006 1.25005V13.2501C0.500006 13.8468 0.737059 14.4191 1.15902 14.841C1.58097 15.263 2.15327 15.5001 2.75001 15.5001H13.25C13.8467 15.5001 14.419 15.263 14.841 14.841C15.263 14.4191 15.5 13.8468 15.5 13.2501V8.75005C15.5 8.55114 15.421 8.36037 15.2803 8.21972C15.1397 8.07907 14.9489 8.00005 14.75 8.00005ZM2.75001 14.0001C2.55109 14.0001 2.36033 13.921 2.21968 13.7804C2.07902 13.6397 2.00001 13.449 2.00001 13.2501V2.54755L3.50001 3.40255C3.61576 3.46301 3.74441 3.49459 3.87501 3.49459C4.0056 3.49459 4.13425 3.46301 4.25001 3.40255L6.50001 2.11255L8.75001 3.40255C8.86576 3.46301 8.99441 3.49459 9.12501 3.49459C9.2556 3.49459 9.38425 3.46301 9.50001 3.40255L11 2.54755V13.2501C11.002 13.5059 11.0477 13.7595 11.135 14.0001H2.75001ZM14 13.2501C14 13.449 13.921 13.6397 13.7803 13.7804C13.6397 13.921 13.4489 14.0001 13.25 14.0001C13.0511 14.0001 12.8603 13.921 12.7197 13.7804C12.579 13.6397 12.5 13.449 12.5 13.2501V9.50005H14V13.2501Z" fill="black"/>
</svg>
