<svg width="20" height="20" viewBox="0 0 20 20" fill="none" xmlns="http://www.w3.org/2000/svg">
<path d="M7.76437 7.18742C7.96519 6.61655 8.36157 6.13518 8.88329 5.82855C9.40502 5.52193 10.0184 5.40984 10.6149 5.51215C11.2113 5.61446 11.7523 5.92455 12.142 6.38752C12.5318 6.85048 12.7451 7.43643 12.7442 8.04159C12.7442 9.74992 10.1817 10.6041 10.1817 10.6041M10.25 14.0208H10.2585M18.7917 9.74992C18.7917 14.4674 14.9674 18.2916 10.25 18.2916C5.53257 18.2916 1.70833 14.4674 1.70833 9.74992C1.70833 5.03249 5.53257 1.20825 10.25 1.20825C14.9674 1.20825 18.7917 5.03249 18.7917 9.74992Z" stroke="black" stroke-width="2" stroke-linecap="round" stroke-linejoin="round"/>
</svg>
