<svg width="30" height="30" viewBox="0 0 30 30" fill="none" xmlns="http://www.w3.org/2000/svg">
<path fill-rule="evenodd" clip-rule="evenodd" d="M0 15C0 6.716 6.716 0 15 0C23.284 0 30 6.716 30 15C30 23.284 23.284 30 15 30C6.716 30 0 23.284 0 15ZM16.376 15.038L21.95 9.46404C22.34 9.07404 22.34 8.44004 21.95 8.05004C21.56 7.66004 20.926 7.66004 20.536 8.05004L15.038 13.548L10.106 8.05004C9.71599 7.66004 9.08199 7.66004 8.69199 8.05004C8.30199 8.44004 8.30199 9.07404 8.69199 9.46404L13.624 14.962L8.04999 20.536C7.65999 20.926 7.65999 21.56 8.04999 21.95C8.43999 22.34 9.07399 22.34 9.46399 21.95L14.962 16.452L19.894 21.95C20.284 22.34 20.918 22.34 21.308 21.95C21.698 21.56 21.698 20.926 21.308 20.536L16.376 15.038Z" fill="#22477B"/>
</svg>
