<svg width="18" height="18" viewBox="0 0 18 18" fill="none" xmlns="http://www.w3.org/2000/svg">
<path d="M8.16667 8.99984H1.5C1.27899 8.99984 1.06703 9.08763 0.910746 9.24391C0.754465 9.40019 0.666668 9.61215 0.666668 9.83317V16.4998C0.666668 16.7208 0.754465 16.9328 0.910746 17.0891C1.06703 17.2454 1.27899 17.3332 1.5 17.3332H8.16667C8.38768 17.3332 8.59964 17.2454 8.75592 17.0891C8.9122 16.9328 9 16.7208 9 16.4998V9.83317C9 9.61215 8.9122 9.40019 8.75592 9.24391C8.59964 9.08763 8.38768 8.99984 8.16667 8.99984ZM7.33333 15.6665H2.33333V10.6665H7.33333V15.6665ZM17.2667 1.18317C17.1821 0.979546 17.0203 0.817733 16.8167 0.733171C16.7165 0.69047 16.6089 0.667821 16.5 0.666504H11.5C11.279 0.666504 11.067 0.754301 10.9107 0.910582C10.7545 1.06686 10.6667 1.27882 10.6667 1.49984C10.6667 1.72085 10.7545 1.93281 10.9107 2.08909C11.067 2.24537 11.279 2.33317 11.5 2.33317H14.4917L10.075 6.7415C9.99689 6.81897 9.9349 6.91114 9.89259 7.01269C9.85028 7.11424 9.8285 7.22316 9.8285 7.33317C9.8285 7.44318 9.85028 7.5521 9.89259 7.65365C9.9349 7.7552 9.99689 7.84737 10.075 7.92484C10.1525 8.00294 10.2446 8.06494 10.3462 8.10725C10.4477 8.14955 10.5567 8.17133 10.6667 8.17133C10.7767 8.17133 10.8856 8.14955 10.9871 8.10725C11.0887 8.06494 11.1809 8.00294 11.2583 7.92484L15.6667 3.50817V6.49984C15.6667 6.72085 15.7545 6.93281 15.9107 7.08909C16.067 7.24537 16.279 7.33317 16.5 7.33317C16.721 7.33317 16.933 7.24537 17.0893 7.08909C17.2455 6.93281 17.3333 6.72085 17.3333 6.49984V1.49984C17.332 1.39094 17.3094 1.28336 17.2667 1.18317Z" fill="black"/>
</svg>
