<svg width="26" height="30" viewBox="0 0 26 30" fill="none" xmlns="http://www.w3.org/2000/svg">
<path fill-rule="evenodd" clip-rule="evenodd" d="M11.288 7.06055H19.7503C24.2932 7.06055 26.0039 9.36029 25.7397 12.7446C25.3042 18.3236 21.9311 21.4085 17.457 21.4085H15.1982C14.585 21.4085 14.1724 21.8138 14.0056 22.9154L13.0365 29.3111C12.9736 29.7265 12.7551 29.9705 12.4267 30H7.12059C6.62132 30 6.44369 29.618 6.57438 28.7908L9.81471 8.27423C9.94453 7.45203 10.3943 7.06055 11.288 7.06055Z" fill="#009DE2"/>
<path fill-rule="evenodd" clip-rule="evenodd" d="M5.99761 0H14.4683C16.8541 0 19.6836 0.07745 21.5765 1.74688C22.841 2.86209 23.5046 4.63887 23.3513 6.54633C22.8319 13.0145 18.9629 16.6372 13.7747 16.6372H9.59696C8.8859 16.6372 8.41456 17.1084 8.21401 18.3845L7.04821 25.8006C6.97261 26.2818 6.76403 26.5653 6.38327 26.5995H1.16527C0.586258 26.5995 0.380402 26.1566 0.531915 25.1973L4.28931 1.40733C4.43988 0.45395 4.96136 0 5.99761 0Z" fill="#113984"/>
<path fill-rule="evenodd" clip-rule="evenodd" d="M8.33545 17.6369L9.81479 8.27417C9.94461 7.45197 10.3944 7.06055 11.2881 7.06055H19.7504C21.1512 7.06055 22.2829 7.27922 23.17 7.68233C22.3197 13.4387 18.5966 16.6373 13.7208 16.6373H9.54306C8.99302 16.6373 8.58223 16.9182 8.33545 17.6369Z" fill="#172C70"/>
</svg>
