<svg width="74" height="74" viewBox="0 0 74 74" fill="none" xmlns="http://www.w3.org/2000/svg">
<path d="M46.9733 25.23L31.2433 40.9967L25.1933 34.9467C24.8646 34.5629 24.4601 34.2511 24.0052 34.031C23.5503 33.811 23.0548 33.6873 22.5499 33.6678C22.0449 33.6483 21.5413 33.7334 21.0708 33.9177C20.6003 34.102 20.1729 34.3817 19.8156 34.739C19.4583 35.0963 19.1787 35.5237 18.9943 35.9942C18.81 36.4647 18.7249 36.9683 18.7444 37.4732C18.7639 37.9782 18.8876 38.4737 19.1077 38.9286C19.3278 39.3835 19.6395 39.788 20.0233 40.1167L28.64 48.77C28.9826 49.1099 29.3889 49.3787 29.8357 49.5612C30.2824 49.7437 30.7608 49.8362 31.2433 49.8334C32.2052 49.8293 33.127 49.4474 33.81 48.77L52.1433 30.4367C52.487 30.0958 52.7598 29.6903 52.9459 29.2435C53.1321 28.7967 53.2279 28.3174 53.2279 27.8334C53.2279 27.3493 53.1321 26.8701 52.9459 26.4233C52.7598 25.9764 52.487 25.5709 52.1433 25.23C51.4563 24.5471 50.527 24.1638 49.5583 24.1638C48.5896 24.1638 47.6603 24.5471 46.9733 25.23ZM37 0.333374C29.748 0.333374 22.6589 2.48384 16.6291 6.51282C10.5993 10.5418 5.89963 16.2684 3.12441 22.9683C0.3492 29.6683 -0.376922 37.0407 1.03787 44.1534C2.45266 51.266 5.94482 57.7994 11.0727 62.9273C16.2007 68.0552 22.734 71.5474 29.8467 72.9622C36.9593 74.377 44.3318 73.6508 51.0317 70.8756C57.7317 68.1004 63.4582 63.4007 67.4872 57.3709C71.5162 51.3411 73.6667 44.252 73.6667 37C73.6667 32.1849 72.7182 27.4169 70.8756 22.9683C69.0329 18.5197 66.3321 14.4776 62.9272 11.0728C59.5224 7.66798 55.4803 4.96713 51.0317 3.12446C46.5831 1.28179 41.8151 0.333374 37 0.333374ZM37 66.3334C31.1984 66.3334 25.5271 64.613 20.7033 61.3898C15.8794 58.1666 12.1197 53.5854 9.89953 48.2254C7.67936 42.8655 7.09846 36.9675 8.2303 31.2774C9.36213 25.5873 12.1559 20.3606 16.2582 16.2582C20.3605 12.1559 25.5872 9.36217 31.2773 8.23034C36.9675 7.09851 42.8654 7.6794 48.2254 9.89958C53.5853 12.1197 58.1666 15.8795 61.3898 20.7033C64.613 25.5272 66.3333 31.1985 66.3333 37C66.3333 44.7797 63.2429 52.2408 57.7418 57.7418C52.2407 63.2429 44.7797 66.3334 37 66.3334Z" fill="#22477B"/>
</svg>
