<svg width="14" height="14" viewBox="0 0 14 14" fill="none" xmlns="http://www.w3.org/2000/svg">
<path d="M8.81335 4.85992L5.95335 7.72659L4.85335 6.62659C4.79358 6.5568 4.72004 6.50012 4.63733 6.4601C4.55462 6.42009 4.46453 6.3976 4.37272 6.39405C4.2809 6.39051 4.18935 6.40598 4.1038 6.43949C4.01825 6.47301 3.94055 6.52385 3.87558 6.58882C3.81061 6.65379 3.75977 6.73149 3.72625 6.81704C3.69274 6.90259 3.67727 6.99414 3.68081 7.08595C3.68436 7.17777 3.70685 7.26786 3.74686 7.35057C3.78688 7.43328 3.84356 7.50682 3.91335 7.56659L5.48001 9.13992C5.54231 9.20171 5.61618 9.25059 5.69741 9.28377C5.77863 9.31694 5.86561 9.33376 5.95335 9.33325C6.12824 9.33252 6.29584 9.26308 6.42001 9.13992L9.75335 5.80659C9.81583 5.74461 9.86543 5.67088 9.89927 5.58964C9.93312 5.5084 9.95055 5.42126 9.95055 5.33325C9.95055 5.24524 9.93312 5.15811 9.89927 5.07687C9.86543 4.99563 9.81583 4.92189 9.75335 4.85992C9.62844 4.73575 9.45947 4.66606 9.28335 4.66606C9.10722 4.66606 8.93826 4.73575 8.81335 4.85992ZM7.00001 0.333252C5.68147 0.333252 4.39254 0.724245 3.29621 1.45679C2.19988 2.18933 1.3454 3.23052 0.840816 4.4487C0.336232 5.66687 0.20421 7.00731 0.461445 8.30052C0.718679 9.59373 1.35362 10.7816 2.28597 11.714C3.21832 12.6463 4.4062 13.2813 5.69941 13.5385C6.99262 13.7957 8.33306 13.6637 9.55124 13.1591C10.7694 12.6545 11.8106 11.8 12.5431 10.7037C13.2757 9.60739 13.6667 8.31846 13.6667 6.99992C13.6667 6.12444 13.4942 5.25753 13.1592 4.4487C12.8242 3.63986 12.3331 2.90493 11.7141 2.28587C11.095 1.66682 10.3601 1.17575 9.55124 0.840722C8.7424 0.50569 7.87549 0.333252 7.00001 0.333252ZM7.00001 12.3333C5.94518 12.3333 4.91403 12.0205 4.03697 11.4344C3.15991 10.8484 2.47632 10.0154 2.07266 9.0409C1.66899 8.06636 1.56337 6.994 1.76916 5.95944C1.97495 4.92487 2.4829 3.97456 3.22878 3.22868C3.97466 2.4828 4.92497 1.97485 5.95953 1.76906C6.9941 1.56328 8.06645 1.66889 9.04099 2.07256C10.0155 2.47623 10.8485 3.15982 11.4345 4.03688C12.0206 4.91394 12.3333 5.94509 12.3333 6.99992C12.3333 8.41441 11.7714 9.77096 10.7712 10.7712C9.77106 11.7713 8.4145 12.3333 7.00001 12.3333Z" fill="#22477B"/>
</svg>
