<svg width="74" height="64" viewBox="0 0 74 64" fill="none" xmlns="http://www.w3.org/2000/svg">
<path d="M41.7666 32.8067C43.7231 31.1131 45.2923 29.0186 46.3679 26.6651C47.4434 24.3116 48 21.7543 48 19.1667C48 14.3044 46.0684 9.6412 42.6303 6.20304C39.1921 2.76487 34.5289 0.833328 29.6666 0.833328C24.8043 0.833328 20.1412 2.76487 16.703 6.20304C13.2649 9.6412 11.3333 14.3044 11.3333 19.1667C11.3333 21.7543 11.8899 24.3116 12.9654 26.6651C14.041 29.0186 15.6102 31.1131 17.5666 32.8067C12.4338 35.1309 8.07902 38.8843 5.02291 43.618C1.9668 48.3517 0.33871 53.8655 0.333313 59.5C0.333313 60.4725 0.719621 61.4051 1.40725 62.0927C2.09489 62.7804 3.02752 63.1667 3.99998 63.1667C4.97244 63.1667 5.90507 62.7804 6.5927 62.0927C7.28034 61.4051 7.66665 60.4725 7.66665 59.5C7.66665 53.6652 9.9845 48.0694 14.1103 43.9436C18.2361 39.8178 23.8319 37.5 29.6666 37.5C35.5014 37.5 41.0972 39.8178 45.223 43.9436C49.3488 48.0694 51.6666 53.6652 51.6666 59.5C51.6666 60.4725 52.053 61.4051 52.7406 62.0927C53.4282 62.7804 54.3609 63.1667 55.3333 63.1667C56.3058 63.1667 57.2384 62.7804 57.926 62.0927C58.6137 61.4051 59 60.4725 59 59.5C58.9946 53.8655 57.3665 48.3517 54.3104 43.618C51.2543 38.8843 46.8995 35.1309 41.7666 32.8067ZM29.6666 30.1667C27.4911 30.1667 25.3643 29.5215 23.5554 28.3128C21.7464 27.1041 20.3365 25.3862 19.504 23.3762C18.6714 21.3662 18.4536 19.1545 18.878 17.0207C19.3024 14.8869 20.3501 12.9269 21.8885 11.3885C23.4268 9.85011 25.3869 8.80246 27.5207 8.37802C29.6544 7.95359 31.8662 8.17142 33.8762 9.00399C35.8862 9.83655 37.6041 11.2464 38.8128 13.0554C40.0215 14.8643 40.6666 16.9911 40.6666 19.1667C40.6666 22.084 39.5077 24.8819 37.4448 26.9448C35.3819 29.0077 32.584 30.1667 29.6666 30.1667ZM72.6033 21.4767C72.2624 21.133 71.8569 20.8602 71.4101 20.6741C70.9633 20.4879 70.484 20.3921 70 20.3921C69.5159 20.3921 69.0367 20.4879 68.5899 20.6741C68.1431 20.8602 67.7375 21.133 67.3967 21.4767L60.0633 28.81L57.79 26.5C57.4491 26.1563 57.0436 25.8835 56.5968 25.6974C56.1499 25.5112 55.6707 25.4154 55.1866 25.4154C54.7026 25.4154 54.2234 25.5112 53.7765 25.6974C53.3297 25.8835 52.9242 26.1563 52.5833 26.5C51.9004 27.187 51.5171 28.1163 51.5171 29.085C51.5171 30.0537 51.9004 30.983 52.5833 31.67L57.4966 36.5833C58.1836 37.2662 59.113 37.6496 60.0816 37.6496C61.0503 37.6496 61.9797 37.2662 62.6666 36.5833L72.4566 26.7933C72.8268 26.4608 73.1255 26.0565 73.3344 25.6049C73.5433 25.1533 73.6581 24.6639 73.6719 24.1665C73.6856 23.6691 73.5979 23.1741 73.4142 22.7117C73.2305 22.2493 72.9546 21.829 72.6033 21.4767Z" fill="#22477B"/>
</svg>
