<svg width="375" height="269" viewBox="0 0 375 269" fill="none" xmlns="http://www.w3.org/2000/svg">
<path d="M374.95 150.53C373.78 152.41 373.92 154.62 373.37 156.66C367.53 178.67 348.03 193.88 325.13 193.97C295.49 194.08 265.84 194.02 236.2 194.03C187.49 194.04 138.77 194 90.06 194.1C77.17 194.13 64.24 194.32 51.54 197.04C27.5 202.18 6.52 224.24 2.49 248.4C1.41 254.9 0.89 261.44 0.48 268C0.35 268.26 0.21 268.26 0.0599999 268.02C0.0599999 179.48 0.07 90.93 0 2.39C0.01 0.28 0.54 0 2.48 0C125.9 0.06 249.33 0.06 372.75 0C374.73 0 375 0.56 375 2.35C374.94 49.08 374.95 95.81 374.95 142.53C374.42 143.49 374.82 144.53 374.7 145.53C374.83 146.53 374.42 147.57 374.95 148.53C374.95 149.2 374.95 149.87 374.95 150.53Z" fill="#22477B"/>
</svg>
