<svg width="352" height="177" viewBox="0 0 352 177" fill="none" xmlns="http://www.w3.org/2000/svg">
<path d="M351.61 105.78C349.6 131.49 328.43 151.59 302.52 151.65C231.95 151.83 161.38 151.73 90.8099 151.75C72.3899 151.75 53.9699 151.77 35.5499 151.8C30.9999 151.81 26.4599 152.12 21.9999 153.07C11.0899 155.38 1.89994 165.78 0.939941 176.88C0.399941 176.99 0.109942 176.77 0.0899416 176.22C0.0499416 175.33 0.0699412 174.44 0.0699412 173.56C0.0699412 117.25 0.0699412 60.95 0.0699412 4.63997C0.0699412 0.779971 0.069941 0.769972 4.05994 0.769972C118.61 0.769972 233.15 0.769972 347.7 0.769972C352.31 0.769972 351.8 0.279972 351.81 4.83997C351.82 37.27 351.82 69.7 351.81 102.12C351.8 103.35 351.98 104.58 351.61 105.78Z" fill="#22477A"/>
</svg>
