<svg width="353" height="241" viewBox="0 0 353 241" fill="none" xmlns="http://www.w3.org/2000/svg">
<path d="M1.36994 0.27002C5.91994 0.25002 10.4799 0.219971 15.0299 0.219971C126.22 0.219971 237.41 0.240015 348.6 0.140015C352.07 0.140015 352.93 1.00002 352.92 4.46002C352.8 54.67 352.84 104.87 352.84 155.08C352.84 185.17 333.41 209.02 303.96 215.1C300.03 215.91 296.06 216.17 292.04 216.17C208.62 216.15 125.2 216.15 41.7799 216.16C35.5599 216.16 29.3399 216.16 23.2099 217.43C12.2999 219.69 3.26994 229.54 1.87994 240.69C1.34994 240.77 1.03994 240.54 0.999944 240.01C0.939944 239.01 0.969945 238.01 0.969945 237.01C0.969945 159.28 0.969944 81.56 0.989944 3.83002C0.989944 2.64002 0.619944 1.38002 1.36994 0.27002Z" fill="#22477A"/>
</svg>
