<svg width="352" height="396" viewBox="0 0 352 396" fill="none" xmlns="http://www.w3.org/2000/svg">
<path d="M0.470049 0.0901289C74.4101 0.0801289 148.36 0.0701301 222.3 0.0601301C264.27 0.0601301 306.24 0.0901326 348.21 0.000132585C351.03 -0.00986741 351.91 0.540134 351.91 3.58013C351.82 105.99 351.85 208.41 351.82 310.82C351.81 339.43 332.43 363.48 304.7 369.61C303.04 369.98 301.4 370 299.75 370C213.48 370.01 127.21 370.01 40.94 370.01C34.61 370.01 28.28 370.01 22.05 371.33C11.11 373.64 1.93005 384.03 0.960049 395.15C0.420049 395.26 0.130048 395.04 0.110048 394.49C0.0600482 393.49 0.0800485 392.49 0.0800485 391.49C0.0800485 262.33 0.080049 133.17 0.100049 4.01013C0.100049 2.70013 -0.289951 1.33013 0.470049 0.0901289Z" fill="#22477A"/>
</svg>
