<svg width="18" height="16" viewBox="0 0 18 16" fill="none" xmlns="http://www.w3.org/2000/svg">
<path d="M0.75 8.375V12.125C0.75 12.3239 0.829018 12.5147 0.96967 12.6553C1.11032 12.796 1.30109 12.875 1.5 12.875H2.25C2.25 13.4717 2.48705 14.044 2.90901 14.466C3.33097 14.8879 3.90326 15.125 4.5 15.125C5.09674 15.125 5.66903 14.8879 6.09099 14.466C6.51295 14.044 6.75 13.4717 6.75 12.875H11.25C11.25 13.4717 11.4871 14.044 11.909 14.466C12.331 14.8879 12.9033 15.125 13.5 15.125C14.0967 15.125 14.669 14.8879 15.091 14.466C15.5129 14.044 15.75 13.4717 15.75 12.875H16.5C16.6989 12.875 16.8897 12.796 17.0303 12.6553C17.171 12.5147 17.25 12.3239 17.25 12.125V3.125C17.25 2.52826 17.0129 1.95597 16.591 1.53401C16.169 1.11205 15.5967 0.875 15 0.875H8.25C7.65326 0.875 7.08097 1.11205 6.65901 1.53401C6.23705 1.95597 6 2.52826 6 3.125V4.625H4.5C4.1507 4.625 3.80619 4.70633 3.49377 4.86254C3.18134 5.01875 2.90958 5.24556 2.7 5.525L0.9 7.925C0.878064 7.9576 0.860418 7.99289 0.8475 8.03L0.8025 8.1125C0.7694 8.19614 0.751616 8.28506 0.75 8.375V8.375ZM12.75 12.875C12.75 12.7267 12.794 12.5817 12.8764 12.4583C12.9588 12.335 13.0759 12.2389 13.213 12.1821C13.35 12.1253 13.5008 12.1105 13.6463 12.1394C13.7918 12.1683 13.9254 12.2398 14.0303 12.3447C14.1352 12.4496 14.2067 12.5832 14.2356 12.7287C14.2645 12.8742 14.2497 13.025 14.1929 13.162C14.1361 13.2991 14.04 13.4162 13.9167 13.4986C13.7933 13.581 13.6483 13.625 13.5 13.625C13.3011 13.625 13.1103 13.546 12.9697 13.4053C12.829 13.2647 12.75 13.0739 12.75 12.875ZM7.5 3.125C7.5 2.92609 7.57902 2.73532 7.71967 2.59467C7.86032 2.45402 8.05109 2.375 8.25 2.375H15C15.1989 2.375 15.3897 2.45402 15.5303 2.59467C15.671 2.73532 15.75 2.92609 15.75 3.125V11.375H15.165C14.9541 11.143 14.6971 10.9576 14.4103 10.8307C14.1236 10.7039 13.8135 10.6384 13.5 10.6384C13.1865 10.6384 12.8764 10.7039 12.5897 10.8307C12.3029 10.9576 12.0459 11.143 11.835 11.375H7.5V3.125ZM6 7.625H3L3.9 6.425C3.96986 6.33185 4.06045 6.25625 4.16459 6.20418C4.26873 6.15211 4.38357 6.125 4.5 6.125H6V7.625ZM3.75 12.875C3.75 12.7267 3.79399 12.5817 3.8764 12.4583C3.95881 12.335 4.07594 12.2389 4.21299 12.1821C4.35003 12.1253 4.50083 12.1105 4.64632 12.1394C4.7918 12.1683 4.92544 12.2398 5.03033 12.3447C5.13522 12.4496 5.20665 12.5832 5.23559 12.7287C5.26453 12.8742 5.24968 13.025 5.19291 13.162C5.13614 13.2991 5.04001 13.4162 4.91668 13.4986C4.79334 13.581 4.64834 13.625 4.5 13.625C4.30109 13.625 4.11032 13.546 3.96967 13.4053C3.82902 13.2647 3.75 13.0739 3.75 12.875ZM2.25 9.125H6V11.21C5.55737 10.8144 4.97635 10.6098 4.38352 10.6407C3.79069 10.6716 3.23409 10.9355 2.835 11.375H2.25V9.125Z" fill="black"/>
</svg>
